<?xml version="1.0" encoding="UTF-8"?>
<svg xmlns="http://www.w3.org/2000/svg" xmlns:xlink="http://www.w3.org/1999/xlink" width="2834.88" height="2834.88" viewBox="0 0 2834.88 2834.88">
<path fill-rule="evenodd" fill="rgb(0%, 0%, 0%)" fill-opacity="1" d="M 717.707031 1518.390625 C 656.910156 1499.699219 580.722656 1421.21875 573.59375 1316.960938 C 617.894531 1358.960938 681.464844 1368.441406 715.398438 1333.851562 C 661.511719 1300.078125 608.230469 1204.550781 628.328125 1101.988281 C 660.253906 1154.03125 719.199219 1179.640625 760.929688 1155.011719 C 717.621094 1108.441406 690.878906 1002.378906 736.839844 908.519531 C 754.203125 967.039062 804.515625 1007.039062 851.199219 994.050781 C 821.417969 937.851562 823.039062 828.488281 891.726562 749.71875 C 893.351562 810.75 931.59375 862.398438 980.050781 861.941406 C 965.828125 799.949219 995.703125 694.730469 1082.429688 636.421875 C 1068.210938 695.789062 1091.78125 755.578125 1138.710938 767.671875 C 1141.011719 704.121094 1197.101562 610.210938 1295.96875 576.339844 C 1266.859375 630 1274.160156 693.859375 1316.351562 717.691406 C 1335.03125 656.890625 1413.511719 580.699219 1517.78125 573.570312 C 1475.78125 617.878906 1466.289062 681.441406 1500.878906 715.378906 C 1534.660156 661.488281 1630.191406 608.210938 1732.738281 628.308594 C 1680.710938 660.230469 1655.089844 719.179688 1679.71875 760.910156 C 1726.300781 717.601562 1832.359375 690.859375 1926.21875 736.820312 C 1867.691406 754.191406 1827.699219 804.488281 1840.679688 851.179688 C 1896.878906 821.398438 2006.25 823.019531 2085.019531 891.710938 C 2023.988281 893.328125 1972.339844 931.578125 1972.800781 980.03125 C 2034.789062 965.808594 2140.011719 995.679688 2198.320312 1082.421875 C 2138.949219 1068.191406 2079.160156 1091.761719 2067.058594 1138.691406 C 2130.621094 1140.988281 2224.519531 1197.078125 2258.398438 1295.949219 C 2204.730469 1266.851562 2140.878906 1274.140625 2117.050781 1316.328125 C 2177.839844 1335.011719 2254.03125 1413.488281 2261.160156 1517.761719 C 2216.859375 1475.761719 2153.289062 1466.269531 2119.359375 1500.859375 C 2173.238281 1534.640625 2226.53125 1630.171875 2206.429688 1732.730469 C 2174.5 1680.691406 2115.558594 1655.070312 2073.820312 1679.699219 C 2117.128906 1726.28125 2143.878906 1832.339844 2097.921875 1926.199219 C 2080.550781 1867.675781 2030.238281 1827.679688 1983.558594 1840.664062 C 2013.339844 1896.863281 2011.710938 2006.230469 1943.03125 2084.996094 C 1941.398438 2023.972656 1903.160156 1972.316406 1854.699219 1972.777344 C 1868.921875 2034.769531 1839.050781 2139.992188 1752.320312 2198.296875 C 1766.539062 2138.929688 1742.96875 2079.136719 1696.050781 2067.042969 C 1693.738281 2130.601562 1637.648438 2224.507812 1538.789062 2258.378906 C 1567.890625 2204.714844 1560.601562 2140.855469 1518.398438 2117.03125 C 1499.71875 2177.824219 1421.238281 2254.015625 1316.980469 2261.144531 C 1358.980469 2216.839844 1368.460938 2153.273438 1333.871094 2119.335938 C 1300.089844 2173.226562 1204.570312 2226.507812 1102.011719 2206.40625 C 1154.050781 2174.484375 1179.660156 2115.535156 1155.03125 2073.804688 C 1108.460938 2117.113281 1002.398438 2143.855469 908.535156 2097.898438 C 967.0625 2080.53125 1007.058594 2030.222656 994.070312 1983.535156 C 937.875 2013.316406 828.503906 2011.695312 749.738281 1943.011719 C 810.765625 1941.382812 862.417969 1903.140625 861.957031 1854.683594 C 799.96875 1868.90625 694.746094 1839.035156 636.4375 1752.300781 C 695.808594 1766.519531 755.597656 1742.949219 767.695312 1696.03125 C 704.136719 1693.71875 610.230469 1637.628906 576.359375 1538.769531 C 630.023438 1567.871094 693.878906 1560.578125 717.707031 1518.390625 Z M 1417.378906 770.78125 C 1060.519531 770.78125 770.800781 1060.5 770.800781 1417.359375 C 770.800781 1774.210938 1060.519531 2063.933594 1417.378906 2063.933594 C 1774.230469 2063.933594 2063.949219 1774.210938 2063.949219 1417.359375 C 2063.949219 1060.5 1774.230469 770.78125 1417.378906 770.78125 Z M 1417.378906 797.890625 C 1759.269531 797.890625 2036.839844 1075.460938 2036.839844 1417.359375 C 2036.839844 1759.25 1759.269531 2036.824219 1417.378906 2036.824219 C 1075.480469 2036.824219 797.910156 1759.25 797.910156 1417.359375 C 797.910156 1075.460938 1075.480469 797.890625 1417.378906 797.890625 Z M 1417.378906 1268.441406 C 1335.191406 1268.441406 1268.460938 1335.171875 1268.460938 1417.359375 C 1268.460938 1499.550781 1335.191406 1566.28125 1417.378906 1566.28125 C 1499.570312 1566.28125 1566.300781 1499.550781 1566.300781 1417.359375 C 1566.300781 1335.171875 1499.570312 1268.441406 1417.378906 1268.441406 "/>
</svg>
